<?xml version="1.0" encoding="UTF-8"?><svg xmlns="http://www.w3.org/2000/svg" xmlns:xlink="http://www.w3.org/1999/xlink" fill-opacity="1" color-rendering="auto" color-interpolation="auto" text-rendering="auto" stroke="black" stroke-linecap="square" width="773" stroke-miterlimit="10" shape-rendering="auto" stroke-opacity="1" fill="black" stroke-dasharray="none" font-weight="normal" stroke-width="1" height="464" font-family="'Dialog'" font-style="normal" stroke-linejoin="miter" font-size="12px" stroke-dashoffset="0" image-rendering="auto">
  <!--Generated by ySVG 2.5-->
  <defs id="genericDefs"/>
  <g>
    <defs id="defs1">
      <clipPath clipPathUnits="userSpaceOnUse" id="clipPath1">
        <path d="M0 0 L773 0 L773 464 L0 464 L0 0 Z"/>
      </clipPath>
      <clipPath clipPathUnits="userSpaceOnUse" id="clipPath2">
        <path d="M-10 -9.621 L925 -9.621 L925 551.621 L-10 551.621 L-10 -9.621 Z"/>
      </clipPath>
      <clipPath clipPathUnits="userSpaceOnUse" id="clipPath3">
        <path d="M-10 -9.7075 L925 -9.7075 L925 551.5344 L-10 551.5344 L-10 -9.7075 Z"/>
      </clipPath>
      <clipPath clipPathUnits="userSpaceOnUse" id="clipPath4">
        <path d="M-0 0 L-0 24 L24 24 L24 0 Z"/>
      </clipPath>
      <clipPath clipPathUnits="userSpaceOnUse" id="clipPath5">
        <path d="M-10 -10.1032 L925 -10.1032 L925 551.1387 L-10 551.1387 L-10 -10.1032 Z"/>
      </clipPath>
      <clipPath clipPathUnits="userSpaceOnUse" id="clipPath6">
        <path d="M0 -0 L0 24 L24 24 L24 -0 Z"/>
      </clipPath>
      <clipPath clipPathUnits="userSpaceOnUse" id="clipPath7">
        <path d="M-10 -10.4157 L925 -10.4157 L925 550.8262 L-10 550.8262 L-10 -10.4157 Z"/>
      </clipPath>
      <clipPath clipPathUnits="userSpaceOnUse" id="clipPath8">
        <path d="M-10.5 -9.8219 L924.5 -9.8219 L924.5 551.42 L-10.5 551.42 L-10.5 -9.8219 Z"/>
      </clipPath>
      <clipPath clipPathUnits="userSpaceOnUse" id="clipPath9">
        <path d="M0 0 L0 24 L24 24 L24 0 Z"/>
      </clipPath>
      <clipPath clipPathUnits="userSpaceOnUse" id="clipPath10">
        <path d="M-10.5 -10.1344 L924.5 -10.1344 L924.5 551.1075 L-10.5 551.1075 L-10.5 -10.1344 Z"/>
      </clipPath>
      <clipPath clipPathUnits="userSpaceOnUse" id="clipPath11">
        <path d="M-0 -0 L-0 24 L24 24 L24 -0 Z"/>
      </clipPath>
      <clipPath clipPathUnits="userSpaceOnUse" id="clipPath12">
        <path d="M-10 -9.9558 L925 -9.9558 L925 551.2861 L-10 551.2861 L-10 -9.9558 Z"/>
      </clipPath>
      <clipPath clipPathUnits="userSpaceOnUse" id="clipPath13">
        <path d="M-10 -9.8933 L925 -9.8933 L925 551.3486 L-10 551.3486 L-10 -9.8933 Z"/>
      </clipPath>
      <clipPath clipPathUnits="userSpaceOnUse" id="clipPath14">
        <path d="M-10 -10.1433 L925 -10.1433 L925 551.0986 L-10 551.0986 L-10 -10.1433 Z"/>
      </clipPath>
      <clipPath clipPathUnits="userSpaceOnUse" id="clipPath15">
        <path d="M-10 -9.8043 L925 -9.8043 L925 551.4376 L-10 551.4376 L-10 -9.8043 Z"/>
      </clipPath>
      <clipPath clipPathUnits="userSpaceOnUse" id="clipPath16">
        <path d="M-10 -10.1168 L925 -10.1168 L925 551.1251 L-10 551.1251 L-10 -10.1168 Z"/>
      </clipPath>
      <clipPath clipPathUnits="userSpaceOnUse" id="clipPath17">
        <path d="M-10 -10.4558 L925 -10.4558 L925 550.7861 L-10 550.7861 L-10 -10.4558 Z"/>
      </clipPath>
    </defs>
    <g fill="white" stroke="white">
      <path d="M11.9219 453 L11.9219 444.4062 L15.1719 444.4062 Q16.0156 444.4062 16.4688 444.4844 Q17.1094 444.5938 17.5312 444.8906 Q17.9688 445.1875 18.2188 445.7188 Q18.4844 446.25 18.4844 446.8906 Q18.4844 447.9844 17.7812 448.75 Q17.0938 449.5 15.2656 449.5 L13.0625 449.5 L13.0625 453 L11.9219 453 ZM13.0625 448.5 L15.2812 448.5 Q16.3906 448.5 16.8438 448.0938 Q17.3125 447.6719 17.3125 446.9219 Q17.3125 446.3906 17.0312 446.0156 Q16.7656 445.625 16.3281 445.5 Q16.0312 445.4219 15.2656 445.4219 L13.0625 445.4219 L13.0625 448.5 ZM19.4102 449.8906 Q19.4102 448.1562 20.3633 447.3281 Q21.1602 446.6406 22.3164 446.6406 Q23.5977 446.6406 24.4102 447.4844 Q25.2383 448.3125 25.2383 449.7969 Q25.2383 451 24.8789 451.6875 Q24.5195 452.375 23.8164 452.7656 Q23.1289 453.1406 22.3164 453.1406 Q21.0195 453.1406 20.207 452.3125 Q19.4102 451.4688 19.4102 449.8906 ZM20.4883 449.8906 Q20.4883 451.0781 21.0039 451.6719 Q21.5352 452.2656 22.3164 452.2656 Q23.1133 452.2656 23.6289 451.6719 Q24.1445 451.0781 24.1445 449.8594 Q24.1445 448.7031 23.6133 448.1094 Q23.0977 447.5156 22.3164 447.5156 Q21.5352 447.5156 21.0039 448.1094 Q20.4883 448.6875 20.4883 449.8906 ZM27.6152 453 L25.709 446.7812 L26.8027 446.7812 L27.7871 450.375 L28.1621 451.7031 Q28.1934 451.6094 28.4902 450.4219 L29.4746 446.7812 L30.5527 446.7812 L31.4902 450.3906 L31.8027 451.5781 L32.1621 450.375 L33.2246 446.7812 L34.2559 446.7812 L32.3027 453 L31.209 453 L30.2246 449.2656 L29.9746 448.2188 L28.7246 453 L27.6152 453 ZM39.3906 451 L40.4844 451.125 Q40.2344 452.0781 39.5312 452.6094 Q38.8281 453.1406 37.75 453.1406 Q36.3906 453.1406 35.5781 452.2969 Q34.7812 451.4531 34.7812 449.9375 Q34.7812 448.375 35.5938 447.5156 Q36.4062 446.6406 37.6875 446.6406 Q38.9375 446.6406 39.7188 447.4844 Q40.5156 448.3281 40.5156 449.875 Q40.5156 449.9688 40.5156 450.1562 L35.875 450.1562 Q35.9375 451.1875 36.4531 451.7344 Q36.9688 452.2656 37.75 452.2656 Q38.3281 452.2656 38.7344 451.9688 Q39.1562 451.6562 39.3906 451 ZM35.9375 449.2969 L39.4062 449.2969 Q39.3438 448.5 39.0156 448.1094 Q38.5 447.5 37.7031 447.5 Q36.9688 447.5 36.4688 447.9844 Q35.9844 448.4688 35.9375 449.2969 ZM41.7988 453 L41.7988 446.7812 L42.752 446.7812 L42.752 447.7188 Q43.1113 447.0625 43.4082 446.8594 Q43.7207 446.6406 44.0957 446.6406 Q44.627 446.6406 45.1738 446.9688 L44.8145 447.9531 Q44.4238 447.7188 44.0488 447.7188 Q43.6895 447.7188 43.4082 447.9375 Q43.1426 448.1406 43.0332 448.5156 Q42.8457 449.0781 42.8457 449.7344 L42.8457 453 L41.7988 453 ZM50.0605 451 L51.1543 451.125 Q50.9043 452.0781 50.2012 452.6094 Q49.498 453.1406 48.4199 453.1406 Q47.0605 453.1406 46.248 452.2969 Q45.4512 451.4531 45.4512 449.9375 Q45.4512 448.375 46.2637 447.5156 Q47.0762 446.6406 48.3574 446.6406 Q49.6074 446.6406 50.3887 447.4844 Q51.1855 448.3281 51.1855 449.875 Q51.1855 449.9688 51.1855 450.1562 L46.5449 450.1562 Q46.6074 451.1875 47.123 451.7344 Q47.6387 452.2656 48.4199 452.2656 Q48.998 452.2656 49.4043 451.9688 Q49.8262 451.6562 50.0605 451 ZM46.6074 449.2969 L50.0762 449.2969 Q50.0137 448.5 49.6855 448.1094 Q49.1699 447.5 48.373 447.5 Q47.6387 447.5 47.1387 447.9844 Q46.6543 448.4688 46.6074 449.2969 ZM56.5156 453 L56.5156 452.2188 Q55.9219 453.1406 54.7812 453.1406 Q54.0312 453.1406 53.4062 452.7344 Q52.7812 452.3125 52.4375 451.5781 Q52.0938 450.8438 52.0938 449.8906 Q52.0938 448.9688 52.4062 448.2031 Q52.7188 447.4375 53.3438 447.0469 Q53.9688 446.6406 54.7344 446.6406 Q55.2969 446.6406 55.7344 446.875 Q56.1719 447.1094 56.4531 447.4844 L56.4531 444.4062 L57.5 444.4062 L57.5 453 L56.5156 453 ZM53.1875 449.8906 Q53.1875 451.0938 53.6875 451.6875 Q54.1875 452.2656 54.875 452.2656 Q55.5625 452.2656 56.0469 451.7031 Q56.5312 451.1406 56.5312 449.9844 Q56.5312 448.7031 56.0312 448.1094 Q55.5469 447.5156 54.8281 447.5156 Q54.125 447.5156 53.6562 448.0938 Q53.1875 448.6562 53.1875 449.8906 ZM63.4609 453 L62.4766 453 L62.4766 444.4062 L63.5391 444.4062 L63.5391 447.4688 Q64.2109 446.6406 65.2422 446.6406 Q65.8203 446.6406 66.3203 446.875 Q66.8359 447.0938 67.1641 447.5156 Q67.5078 447.9375 67.6953 448.5312 Q67.8828 449.125 67.8828 449.7969 Q67.8828 451.3906 67.0859 452.2656 Q66.2891 453.1406 65.1953 453.1406 Q64.0859 453.1406 63.4609 452.2188 L63.4609 453 ZM63.4453 449.8438 Q63.4453 450.9531 63.7578 451.4531 Q64.2578 452.2656 65.1016 452.2656 Q65.7891 452.2656 66.2891 451.6719 Q66.8047 451.0781 66.8047 449.875 Q66.8047 448.6562 66.3203 448.0781 Q65.8359 447.5 65.1484 447.5 Q64.4609 447.5 63.9453 448.1094 Q63.4453 448.7031 63.4453 449.8438 ZM69.1191 455.3906 L68.9941 454.4062 Q69.3379 454.5 69.6035 454.5 Q69.9473 454.5 70.1504 454.375 Q70.3691 454.2656 70.5098 454.0625 Q70.6035 453.8906 70.8379 453.2656 Q70.8535 453.1875 70.9316 453.0156 L68.5566 446.7812 L69.6973 446.7812 L70.9941 450.375 Q71.2441 451.0625 71.4473 451.8281 Q71.6348 451.0938 71.8848 450.4062 L73.2129 446.7812 L74.2598 446.7812 L71.9004 453.1094 Q71.5098 454.125 71.3066 454.5156 Q71.0254 455.0469 70.6504 455.2812 Q70.291 455.5312 69.791 455.5312 Q69.4941 455.5312 69.1191 455.3906 ZM78.4531 455.3906 L78.3281 454.4062 Q78.6719 454.5 78.9375 454.5 Q79.2812 454.5 79.4844 454.375 Q79.7031 454.2656 79.8438 454.0625 Q79.9375 453.8906 80.1719 453.2656 Q80.1875 453.1875 80.2656 453.0156 L77.8906 446.7812 L79.0312 446.7812 L80.3281 450.375 Q80.5781 451.0625 80.7812 451.8281 Q80.9688 451.0938 81.2188 450.4062 L82.5469 446.7812 L83.5938 446.7812 L81.2344 453.1094 Q80.8438 454.125 80.6406 454.5156 Q80.3594 455.0469 79.9844 455.2812 Q79.625 455.5312 79.125 455.5312 Q78.8281 455.5312 78.4531 455.3906 ZM84.6875 453 L84.6875 444.4062 L90.4844 444.4062 L90.4844 445.4219 L85.8281 445.4219 L85.8281 448.0781 L89.8594 448.0781 L89.8594 449.0938 L85.8281 449.0938 L85.8281 453 L84.6875 453 ZM91.8301 445.625 L91.8301 444.4062 L92.8926 444.4062 L92.8926 445.625 L91.8301 445.625 ZM91.8301 453 L91.8301 446.7812 L92.8926 446.7812 L92.8926 453 L91.8301 453 ZM94.4648 453 L94.4648 444.4062 L95.5273 444.4062 L95.5273 453 L94.4648 453 ZM101.4121 451 L102.5059 451.125 Q102.2559 452.0781 101.5527 452.6094 Q100.8496 453.1406 99.7715 453.1406 Q98.4121 453.1406 97.5996 452.2969 Q96.8027 451.4531 96.8027 449.9375 Q96.8027 448.375 97.6152 447.5156 Q98.4277 446.6406 99.709 446.6406 Q100.959 446.6406 101.7402 447.4844 Q102.5371 448.3281 102.5371 449.875 Q102.5371 449.9688 102.5371 450.1562 L97.8965 450.1562 Q97.959 451.1875 98.4746 451.7344 Q98.9902 452.2656 99.7715 452.2656 Q100.3496 452.2656 100.7559 451.9688 Q101.1777 451.6562 101.4121 451 ZM97.959 449.2969 L101.4277 449.2969 Q101.3652 448.5 101.0371 448.1094 Q100.5215 447.5 99.7246 447.5 Q98.9902 447.5 98.4902 447.9844 Q98.0059 448.4688 97.959 449.2969 ZM103.4141 451.1406 L104.4453 450.9844 Q104.5391 451.6094 104.9297 451.9375 Q105.3359 452.2656 106.0703 452.2656 Q106.7891 452.2656 107.1328 451.9844 Q107.4922 451.6875 107.4922 451.2812 Q107.4922 450.9219 107.1797 450.7188 Q106.9609 450.5781 106.1016 450.3594 Q104.9453 450.0625 104.4922 449.8594 Q104.0547 449.6406 103.8203 449.2656 Q103.5859 448.8906 103.5859 448.4219 Q103.5859 448.0156 103.7734 447.6562 Q103.9609 447.2969 104.2891 447.0625 Q104.5391 446.8906 104.9609 446.7656 Q105.3828 446.6406 105.8828 446.6406 Q106.6016 446.6406 107.1484 446.8594 Q107.7109 447.0625 107.9766 447.4219 Q108.2422 447.7812 108.3359 448.375 L107.3047 448.5156 Q107.2422 448.0469 106.8984 447.7812 Q106.5703 447.5 105.9453 447.5 Q105.2266 447.5 104.9141 447.75 Q104.6016 447.9844 104.6016 448.3125 Q104.6016 448.5156 104.7266 448.6719 Q104.8672 448.8438 105.1328 448.9531 Q105.2891 449.0156 106.0703 449.2188 Q107.1953 449.5312 107.6328 449.7188 Q108.0703 449.9062 108.3203 450.2656 Q108.5703 450.625 108.5703 451.1719 Q108.5703 451.7031 108.2578 452.1719 Q107.9609 452.625 107.3828 452.8906 Q106.8047 453.1406 106.0703 453.1406 Q104.8516 453.1406 104.2109 452.6406 Q103.5859 452.125 103.4141 451.1406 Z" stroke="none" clip-path="url(#clipPath1)"/>
    </g>
    <g fill="silver" stroke="silver">
      <path d="M10.9219 452 L10.9219 443.4062 L14.1719 443.4062 Q15.0156 443.4062 15.4688 443.4844 Q16.1094 443.5938 16.5312 443.8906 Q16.9688 444.1875 17.2188 444.7188 Q17.4844 445.25 17.4844 445.8906 Q17.4844 446.9844 16.7812 447.75 Q16.0938 448.5 14.2656 448.5 L12.0625 448.5 L12.0625 452 L10.9219 452 ZM12.0625 447.5 L14.2812 447.5 Q15.3906 447.5 15.8438 447.0938 Q16.3125 446.6719 16.3125 445.9219 Q16.3125 445.3906 16.0312 445.0156 Q15.7656 444.625 15.3281 444.5 Q15.0312 444.4219 14.2656 444.4219 L12.0625 444.4219 L12.0625 447.5 ZM18.4102 448.8906 Q18.4102 447.1562 19.3633 446.3281 Q20.1602 445.6406 21.3164 445.6406 Q22.5977 445.6406 23.4102 446.4844 Q24.2383 447.3125 24.2383 448.7969 Q24.2383 450 23.8789 450.6875 Q23.5195 451.375 22.8164 451.7656 Q22.1289 452.1406 21.3164 452.1406 Q20.0195 452.1406 19.207 451.3125 Q18.4102 450.4688 18.4102 448.8906 ZM19.4883 448.8906 Q19.4883 450.0781 20.0039 450.6719 Q20.5352 451.2656 21.3164 451.2656 Q22.1133 451.2656 22.6289 450.6719 Q23.1445 450.0781 23.1445 448.8594 Q23.1445 447.7031 22.6133 447.1094 Q22.0977 446.5156 21.3164 446.5156 Q20.5352 446.5156 20.0039 447.1094 Q19.4883 447.6875 19.4883 448.8906 ZM26.6152 452 L24.709 445.7812 L25.8027 445.7812 L26.7871 449.375 L27.1621 450.7031 Q27.1934 450.6094 27.4902 449.4219 L28.4746 445.7812 L29.5527 445.7812 L30.4902 449.3906 L30.8027 450.5781 L31.1621 449.375 L32.2246 445.7812 L33.2559 445.7812 L31.3027 452 L30.209 452 L29.2246 448.2656 L28.9746 447.2188 L27.7246 452 L26.6152 452 ZM38.3906 450 L39.4844 450.125 Q39.2344 451.0781 38.5312 451.6094 Q37.8281 452.1406 36.75 452.1406 Q35.3906 452.1406 34.5781 451.2969 Q33.7812 450.4531 33.7812 448.9375 Q33.7812 447.375 34.5938 446.5156 Q35.4062 445.6406 36.6875 445.6406 Q37.9375 445.6406 38.7188 446.4844 Q39.5156 447.3281 39.5156 448.875 Q39.5156 448.9688 39.5156 449.1562 L34.875 449.1562 Q34.9375 450.1875 35.4531 450.7344 Q35.9688 451.2656 36.75 451.2656 Q37.3281 451.2656 37.7344 450.9688 Q38.1562 450.6562 38.3906 450 ZM34.9375 448.2969 L38.4062 448.2969 Q38.3438 447.5 38.0156 447.1094 Q37.5 446.5 36.7031 446.5 Q35.9688 446.5 35.4688 446.9844 Q34.9844 447.4688 34.9375 448.2969 ZM40.7988 452 L40.7988 445.7812 L41.752 445.7812 L41.752 446.7188 Q42.1113 446.0625 42.4082 445.8594 Q42.7207 445.6406 43.0957 445.6406 Q43.627 445.6406 44.1738 445.9688 L43.8145 446.9531 Q43.4238 446.7188 43.0488 446.7188 Q42.6895 446.7188 42.4082 446.9375 Q42.1426 447.1406 42.0332 447.5156 Q41.8457 448.0781 41.8457 448.7344 L41.8457 452 L40.7988 452 ZM49.0605 450 L50.1543 450.125 Q49.9043 451.0781 49.2012 451.6094 Q48.498 452.1406 47.4199 452.1406 Q46.0605 452.1406 45.248 451.2969 Q44.4512 450.4531 44.4512 448.9375 Q44.4512 447.375 45.2637 446.5156 Q46.0762 445.6406 47.3574 445.6406 Q48.6074 445.6406 49.3887 446.4844 Q50.1855 447.3281 50.1855 448.875 Q50.1855 448.9688 50.1855 449.1562 L45.5449 449.1562 Q45.6074 450.1875 46.123 450.7344 Q46.6387 451.2656 47.4199 451.2656 Q47.998 451.2656 48.4043 450.9688 Q48.8262 450.6562 49.0605 450 ZM45.6074 448.2969 L49.0762 448.2969 Q49.0137 447.5 48.6855 447.1094 Q48.1699 446.5 47.373 446.5 Q46.6387 446.5 46.1387 446.9844 Q45.6543 447.4688 45.6074 448.2969 ZM55.5156 452 L55.5156 451.2188 Q54.9219 452.1406 53.7812 452.1406 Q53.0312 452.1406 52.4062 451.7344 Q51.7812 451.3125 51.4375 450.5781 Q51.0938 449.8438 51.0938 448.8906 Q51.0938 447.9688 51.4062 447.2031 Q51.7188 446.4375 52.3438 446.0469 Q52.9688 445.6406 53.7344 445.6406 Q54.2969 445.6406 54.7344 445.875 Q55.1719 446.1094 55.4531 446.4844 L55.4531 443.4062 L56.5 443.4062 L56.5 452 L55.5156 452 ZM52.1875 448.8906 Q52.1875 450.0938 52.6875 450.6875 Q53.1875 451.2656 53.875 451.2656 Q54.5625 451.2656 55.0469 450.7031 Q55.5312 450.1406 55.5312 448.9844 Q55.5312 447.7031 55.0312 447.1094 Q54.5469 446.5156 53.8281 446.5156 Q53.125 446.5156 52.6562 447.0938 Q52.1875 447.6562 52.1875 448.8906 ZM62.4609 452 L61.4766 452 L61.4766 443.4062 L62.5391 443.4062 L62.5391 446.4688 Q63.2109 445.6406 64.2422 445.6406 Q64.8203 445.6406 65.3203 445.875 Q65.8359 446.0938 66.1641 446.5156 Q66.5078 446.9375 66.6953 447.5312 Q66.8828 448.125 66.8828 448.7969 Q66.8828 450.3906 66.0859 451.2656 Q65.2891 452.1406 64.1953 452.1406 Q63.0859 452.1406 62.4609 451.2188 L62.4609 452 ZM62.4453 448.8438 Q62.4453 449.9531 62.7578 450.4531 Q63.2578 451.2656 64.1016 451.2656 Q64.7891 451.2656 65.2891 450.6719 Q65.8047 450.0781 65.8047 448.875 Q65.8047 447.6562 65.3203 447.0781 Q64.8359 446.5 64.1484 446.5 Q63.4609 446.5 62.9453 447.1094 Q62.4453 447.7031 62.4453 448.8438 ZM68.1191 454.3906 L67.9941 453.4062 Q68.3379 453.5 68.6035 453.5 Q68.9473 453.5 69.1504 453.375 Q69.3691 453.2656 69.5098 453.0625 Q69.6035 452.8906 69.8379 452.2656 Q69.8535 452.1875 69.9316 452.0156 L67.5566 445.7812 L68.6973 445.7812 L69.9941 449.375 Q70.2441 450.0625 70.4473 450.8281 Q70.6348 450.0938 70.8848 449.4062 L72.2129 445.7812 L73.2598 445.7812 L70.9004 452.1094 Q70.5098 453.125 70.3066 453.5156 Q70.0254 454.0469 69.6504 454.2812 Q69.291 454.5312 68.791 454.5312 Q68.4941 454.5312 68.1191 454.3906 ZM77.4531 454.3906 L77.3281 453.4062 Q77.6719 453.5 77.9375 453.5 Q78.2812 453.5 78.4844 453.375 Q78.7031 453.2656 78.8438 453.0625 Q78.9375 452.8906 79.1719 452.2656 Q79.1875 452.1875 79.2656 452.0156 L76.8906 445.7812 L78.0312 445.7812 L79.3281 449.375 Q79.5781 450.0625 79.7812 450.8281 Q79.9688 450.0938 80.2188 449.4062 L81.5469 445.7812 L82.5938 445.7812 L80.2344 452.1094 Q79.8438 453.125 79.6406 453.5156 Q79.3594 454.0469 78.9844 454.2812 Q78.625 454.5312 78.125 454.5312 Q77.8281 454.5312 77.4531 454.3906 ZM83.6875 452 L83.6875 443.4062 L89.4844 443.4062 L89.4844 444.4219 L84.8281 444.4219 L84.8281 447.0781 L88.8594 447.0781 L88.8594 448.0938 L84.8281 448.0938 L84.8281 452 L83.6875 452 ZM90.8301 444.625 L90.8301 443.4062 L91.8926 443.4062 L91.8926 444.625 L90.8301 444.625 ZM90.8301 452 L90.8301 445.7812 L91.8926 445.7812 L91.8926 452 L90.8301 452 ZM93.4648 452 L93.4648 443.4062 L94.5273 443.4062 L94.5273 452 L93.4648 452 ZM100.4121 450 L101.5059 450.125 Q101.2559 451.0781 100.5527 451.6094 Q99.8496 452.1406 98.7715 452.1406 Q97.4121 452.1406 96.5996 451.2969 Q95.8027 450.4531 95.8027 448.9375 Q95.8027 447.375 96.6152 446.5156 Q97.4277 445.6406 98.709 445.6406 Q99.959 445.6406 100.7402 446.4844 Q101.5371 447.3281 101.5371 448.875 Q101.5371 448.9688 101.5371 449.1562 L96.8965 449.1562 Q96.959 450.1875 97.4746 450.7344 Q97.9902 451.2656 98.7715 451.2656 Q99.3496 451.2656 99.7559 450.9688 Q100.1777 450.6562 100.4121 450 ZM96.959 448.2969 L100.4277 448.2969 Q100.3652 447.5 100.0371 447.1094 Q99.5215 446.5 98.7246 446.5 Q97.9902 446.5 97.4902 446.9844 Q97.0059 447.4688 96.959 448.2969 ZM102.4141 450.1406 L103.4453 449.9844 Q103.5391 450.6094 103.9297 450.9375 Q104.3359 451.2656 105.0703 451.2656 Q105.7891 451.2656 106.1328 450.9844 Q106.4922 450.6875 106.4922 450.2812 Q106.4922 449.9219 106.1797 449.7188 Q105.9609 449.5781 105.1016 449.3594 Q103.9453 449.0625 103.4922 448.8594 Q103.0547 448.6406 102.8203 448.2656 Q102.5859 447.8906 102.5859 447.4219 Q102.5859 447.0156 102.7734 446.6562 Q102.9609 446.2969 103.2891 446.0625 Q103.5391 445.8906 103.9609 445.7656 Q104.3828 445.6406 104.8828 445.6406 Q105.6016 445.6406 106.1484 445.8594 Q106.7109 446.0625 106.9766 446.4219 Q107.2422 446.7812 107.3359 447.375 L106.3047 447.5156 Q106.2422 447.0469 105.8984 446.7812 Q105.5703 446.5 104.9453 446.5 Q104.2266 446.5 103.9141 446.75 Q103.6016 446.9844 103.6016 447.3125 Q103.6016 447.5156 103.7266 447.6719 Q103.8672 447.8438 104.1328 447.9531 Q104.2891 448.0156 105.0703 448.2188 Q106.1953 448.5312 106.6328 448.7188 Q107.0703 448.9062 107.3203 449.2656 Q107.5703 449.625 107.5703 450.1719 Q107.5703 450.7031 107.2578 451.1719 Q106.9609 451.625 106.3828 451.8906 Q105.8047 452.1406 105.0703 452.1406 Q103.8516 452.1406 103.2109 451.6406 Q102.5859 451.125 102.4141 450.1406 Z" stroke="none" clip-path="url(#clipPath1)"/>
    </g>
    <g fill="rgb(255,255,204)" transform="matrix(0.8267,0,0,0.8267,8.2674,7.954)" stroke="rgb(255,255,204)">
      <rect x="653" width="220" height="183.0224" y="358.5642" clip-path="url(#clipPath2)" stroke="none"/>
    </g>
    <g fill="gray" stroke-miterlimit="1.45" transform="matrix(0.8267,0,0,0.8267,8.2674,7.954)" stroke-linecap="butt" stroke="gray">
      <rect fill="none" x="653" width="220" height="183.0224" y="358.5642" clip-path="url(#clipPath2)"/>
      <text x="728.5" y="376.1889" clip-path="url(#clipPath2)" fill="black" font-family="'Inter'" stroke="none" xml:space="preserve">CUSTOMER</text>
      <line stroke-linecap="square" clip-path="url(#clipPath2)" fill="none" x1="654" x2="872" y1="383" y2="383" stroke-miterlimit="10"/>
    </g>
    <g stroke-linecap="round" transform="matrix(0.5512,0,0,0.5512,551.4342,327.1464)" fill="silver" image-rendering="optimizeQuality" stroke-linejoin="round" stroke="silver" stroke-width="2" stroke-miterlimit="4">
      <path fill="none" d="M12.4 2.7 C13.3 1.8 14.9 1.8 15.8 2.7 L21.3 8.2 C22.2 9.1 22.2 10.7 21.3 11.6 L17.6 15.3 C16.7 16.2 15.1 16.2 14.2 15.3 L8.7 9.8 C7.8 8.9 7.8 7.3 8.7 6.4 Z" clip-path="url(#clipPath4)"/>
    </g>
    <g stroke-linecap="round" transform="matrix(0.5512,0,0,0.5512,551.4342,327.1464)" fill="silver" image-rendering="optimizeQuality" stroke-linejoin="round" stroke="silver" stroke-width="2" stroke-miterlimit="4">
      <path fill="none" d="M14 7 L17 10" clip-path="url(#clipPath4)"/>
    </g>
    <g stroke-linecap="round" transform="matrix(0.5512,0,0,0.5512,551.4342,327.1464)" fill="silver" image-rendering="optimizeQuality" stroke-linejoin="round" stroke="silver" stroke-width="2" stroke-miterlimit="4">
      <path fill="none" d="M9.4 10.6 L2 18 L2 21 C2 21.6 2.4 22 3 22 L7 22 L7 19 L10 19 L10 16 L12 16 L13.4 14.6" clip-path="url(#clipPath4)"/>
    </g>
    <g stroke-miterlimit="1.45" font-size="11px" font-weight="bold" font-family="'Inter'" transform="matrix(0.8267,0,0,0.8267,8.2674,7.954)" stroke-linecap="butt">
      <text x="679" xml:space="preserve" y="399.7428" clip-path="url(#clipPath2)" stroke="none">Cust_ID</text>
    </g>
    <g stroke-miterlimit="1.45" font-size="11px" font-family="'Inter'" transform="matrix(0.8267,0,0,0.8267,8.2674,7.954)" stroke-linecap="butt">
      <text x="743" xml:space="preserve" y="399.7428" clip-path="url(#clipPath2)" stroke="none">CHARACTER</text>
      <text x="679" xml:space="preserve" y="419.0553" clip-path="url(#clipPath2)" stroke="none">First_Name</text>
      <text x="743" xml:space="preserve" y="419.0553" clip-path="url(#clipPath2)" stroke="none">CHARACTER VARYING</text>
      <text x="679" xml:space="preserve" y="438.3678" clip-path="url(#clipPath2)" stroke="none">Last_Name</text>
      <text x="743" xml:space="preserve" y="438.3678" clip-path="url(#clipPath2)" stroke="none">CHARACTER VARYING</text>
      <text x="679" xml:space="preserve" y="457.6803" clip-path="url(#clipPath2)" font-weight="bold" stroke="none">Email</text>
      <text x="743" xml:space="preserve" y="457.6803" clip-path="url(#clipPath2)" stroke="none">CHARACTER VARYING</text>
      <text x="679" xml:space="preserve" y="476.9928" clip-path="url(#clipPath2)" font-weight="bold" stroke="none">Password</text>
      <text x="743" xml:space="preserve" y="476.9928" clip-path="url(#clipPath2)" stroke="none">CHARACTER VARYING</text>
      <text x="679" xml:space="preserve" y="496.3053" clip-path="url(#clipPath2)" stroke="none">Phone_nr</text>
      <text x="743" xml:space="preserve" y="496.3053" clip-path="url(#clipPath2)" stroke="none">CHARACTER VARYING</text>
      <text x="679" xml:space="preserve" y="515.6178" clip-path="url(#clipPath2)" stroke="none">Newsletter</text>
      <text x="743" xml:space="preserve" y="515.6178" clip-path="url(#clipPath2)" stroke="none">BOOLEAN</text>
      <text x="679" xml:space="preserve" y="534.9303" clip-path="url(#clipPath2)" stroke="none">Address</text>
      <text x="743" xml:space="preserve" y="534.9303" clip-path="url(#clipPath2)" stroke="none">CHARACTER VARYING</text>
    </g>
    <g fill="rgb(255,255,204)" transform="matrix(0.8267,0,0,0.8267,8.2674,7.954)" stroke="rgb(255,255,204)">
      <rect x="297" width="254" height="163.7099" y="265.9599" clip-path="url(#clipPath2)" stroke="none"/>
    </g>
    <g fill="gray" stroke-miterlimit="1.45" transform="matrix(0.8267,0,0,0.8267,8.2674,7.954)" stroke-linecap="butt" stroke="gray">
      <rect fill="none" x="297" width="254" height="163.7099" y="265.9599" clip-path="url(#clipPath2)"/>
      <text x="399.5" y="283.5846" clip-path="url(#clipPath2)" fill="black" font-family="'Inter'" stroke="none" xml:space="preserve">ORDERS</text>
      <line stroke-linecap="square" clip-path="url(#clipPath2)" fill="none" x1="298" x2="550" y1="290" y2="290" stroke-miterlimit="10"/>
    </g>
    <g stroke-linecap="round" transform="matrix(0.5512,0,0,0.5512,257.1155,250.5869)" fill="silver" image-rendering="optimizeQuality" stroke-linejoin="round" stroke="silver" stroke-width="2" stroke-miterlimit="4">
      <path fill="none" d="M12.4 2.7 C13.3 1.8 14.9 1.8 15.8 2.7 L21.3 8.2 C22.2 9.1 22.2 10.7 21.3 11.6 L17.6 15.3 C16.7 16.2 15.1 16.2 14.2 15.3 L8.7 9.8 C7.8 8.9 7.8 7.3 8.7 6.4 Z" clip-path="url(#clipPath6)"/>
    </g>
    <g stroke-linecap="round" transform="matrix(0.5512,0,0,0.5512,257.1155,250.5869)" fill="silver" image-rendering="optimizeQuality" stroke-linejoin="round" stroke="silver" stroke-width="2" stroke-miterlimit="4">
      <path fill="none" d="M14 7 L17 10" clip-path="url(#clipPath6)"/>
    </g>
    <g stroke-linecap="round" transform="matrix(0.5512,0,0,0.5512,257.1155,250.5869)" fill="silver" image-rendering="optimizeQuality" stroke-linejoin="round" stroke="silver" stroke-width="2" stroke-miterlimit="4">
      <path fill="none" d="M9.4 10.6 L2 18 L2 21 C2 21.6 2.4 22 3 22 L7 22 L7 19 L10 19 L10 16 L12 16 L13.4 14.6" clip-path="url(#clipPath6)"/>
    </g>
    <g stroke-miterlimit="1.45" font-size="11px" font-weight="bold" font-family="'Inter'" transform="matrix(0.8267,0,0,0.8267,8.2674,7.954)" stroke-linecap="butt">
      <text x="323" xml:space="preserve" y="307.1385" clip-path="url(#clipPath2)" stroke="none">Order_ID</text>
    </g>
    <g stroke-miterlimit="1.45" font-size="11px" font-family="'Inter'" transform="matrix(0.8267,0,0,0.8267,8.2674,7.954)" stroke-linecap="butt">
      <text x="405" xml:space="preserve" y="307.1385" clip-path="url(#clipPath2)" stroke="none">INTEGER</text>
      <text x="323" xml:space="preserve" y="326.451" clip-path="url(#clipPath2)" font-weight="bold" stroke="none">Cust_ID</text>
      <text x="405" xml:space="preserve" y="326.451" clip-path="url(#clipPath2)" stroke="none">CHARACTER</text>
    </g>
    <g stroke-linecap="round" transform="matrix(0.5512,0,0,0.5512,445.6118,266.5533)" fill="silver" image-rendering="optimizeQuality" stroke-linejoin="round" stroke="silver" stroke-width="2" stroke-miterlimit="4">
      <path fill="none" d="M7 7 L17 7 L17 17" clip-path="url(#clipPath4)"/>
    </g>
    <g stroke-linecap="round" transform="matrix(0.5512,0,0,0.5512,445.6118,266.5533)" fill="silver" image-rendering="optimizeQuality" stroke-linejoin="round" stroke="silver" stroke-width="2" stroke-miterlimit="4">
      <path fill="none" d="M7 17 L17 7" clip-path="url(#clipPath4)"/>
    </g>
    <g stroke-miterlimit="1.45" font-size="11px" font-family="'Inter'" transform="matrix(0.8267,0,0,0.8267,8.2674,7.954)" stroke-linecap="butt">
      <text x="323" xml:space="preserve" y="345.7635" clip-path="url(#clipPath2)" stroke="none">Date_Created</text>
    </g>
    <g stroke-miterlimit="1.45" font-size="11px" font-family="'Inter'" transform="matrix(0.8267,0,0,0.8267,8.2674,7.954)" stroke-linecap="butt">
      <text x="405" xml:space="preserve" y="345.7635" clip-path="url(#clipPath2)" stroke="none">DATE</text>
      <text x="323" xml:space="preserve" y="365.076" clip-path="url(#clipPath2)" stroke="none">Date_Changed</text>
      <text x="405" xml:space="preserve" y="365.076" clip-path="url(#clipPath2)" stroke="none">DATE</text>
      <text x="323" xml:space="preserve" y="384.3885" clip-path="url(#clipPath2)" stroke="none">Status</text>
      <text x="405" xml:space="preserve" y="384.3885" clip-path="url(#clipPath2)" stroke="none">CHARACTER VARYING</text>
      <text x="323" xml:space="preserve" y="403.701" clip-path="url(#clipPath2)" stroke="none">Payment_Ref</text>
      <text x="405" xml:space="preserve" y="403.701" clip-path="url(#clipPath2)" stroke="none">CHARACTER VARYING</text>
      <text x="323" xml:space="preserve" y="423.0135" clip-path="url(#clipPath2)" stroke="none">Tracking_nr</text>
      <text x="405" xml:space="preserve" y="423.0135" clip-path="url(#clipPath2)" stroke="none">CHARACTER VARYING</text>
    </g>
    <g fill="rgb(255,255,204)" transform="matrix(0.8267,0,0,0.8267,8.2674,7.954)" stroke="rgb(255,255,204)">
      <rect x="0.5" width="226" height="125.0849" y="384.6786" clip-path="url(#clipPath2)" stroke="none"/>
    </g>
    <g fill="gray" stroke-miterlimit="1.45" transform="matrix(0.8267,0,0,0.8267,8.2674,7.954)" stroke-linecap="butt" stroke="gray">
      <rect fill="none" x="0.5" width="226" height="125.0849" y="384.6786" clip-path="url(#clipPath2)"/>
      <text x="91.5" y="402.3033" clip-path="url(#clipPath2)" fill="black" font-family="'Inter'" stroke="none" xml:space="preserve">REVIEW</text>
      <line stroke-linecap="square" clip-path="url(#clipPath2)" fill="none" x1="1" x2="225" y1="409" y2="409" stroke-miterlimit="10"/>
    </g>
    <g stroke-linecap="round" transform="matrix(0.5512,0,0,0.5512,11.9877,348.7362)" fill="silver" image-rendering="optimizeQuality" stroke-linejoin="round" stroke="silver" stroke-width="2" stroke-miterlimit="4">
      <path fill="none" d="M12.4 2.7 C13.3 1.8 14.9 1.8 15.8 2.7 L21.3 8.2 C22.2 9.1 22.2 10.7 21.3 11.6 L17.6 15.3 C16.7 16.2 15.1 16.2 14.2 15.3 L8.7 9.8 C7.8 8.9 7.8 7.3 8.7 6.4 Z" clip-path="url(#clipPath4)"/>
    </g>
    <g stroke-linecap="round" transform="matrix(0.5512,0,0,0.5512,11.9877,348.7362)" fill="silver" image-rendering="optimizeQuality" stroke-linejoin="round" stroke="silver" stroke-width="2" stroke-miterlimit="4">
      <path fill="none" d="M14 7 L17 10" clip-path="url(#clipPath4)"/>
    </g>
    <g stroke-linecap="round" transform="matrix(0.5512,0,0,0.5512,11.9877,348.7362)" fill="silver" image-rendering="optimizeQuality" stroke-linejoin="round" stroke="silver" stroke-width="2" stroke-miterlimit="4">
      <path fill="none" d="M9.4 10.6 L2 18 L2 21 C2 21.6 2.4 22 3 22 L7 22 L7 19 L10 19 L10 16 L12 16 L13.4 14.6" clip-path="url(#clipPath4)"/>
    </g>
    <g stroke-miterlimit="1.45" font-size="11px" font-weight="bold" font-family="'Inter'" transform="matrix(0.8267,0,0,0.8267,8.2674,7.954)" stroke-linecap="butt">
      <text x="26.5" xml:space="preserve" y="425.8572" clip-path="url(#clipPath2)" stroke="none">Prod_ID</text>
    </g>
    <g stroke-miterlimit="1.45" font-size="11px" font-family="'Inter'" transform="matrix(0.8267,0,0,0.8267,8.2674,7.954)" stroke-linecap="butt">
      <text x="80.5" xml:space="preserve" y="425.8572" clip-path="url(#clipPath2)" stroke="none">INTEGER</text>
    </g>
    <g stroke-linecap="round" transform="matrix(0.5512,0,0,0.5512,177.3353,348.7362)" fill="silver" image-rendering="optimizeQuality" stroke-linejoin="round" stroke="silver" stroke-width="2" stroke-miterlimit="4">
      <path fill="none" d="M7 7 L17 7 L17 17" clip-path="url(#clipPath9)"/>
    </g>
    <g stroke-linecap="round" transform="matrix(0.5512,0,0,0.5512,177.3353,348.7362)" fill="silver" image-rendering="optimizeQuality" stroke-linejoin="round" stroke="silver" stroke-width="2" stroke-miterlimit="4">
      <path fill="none" d="M7 17 L17 7" clip-path="url(#clipPath9)"/>
    </g>
    <g stroke-linecap="round" transform="matrix(0.5512,0,0,0.5512,11.9877,364.7026)" fill="silver" image-rendering="optimizeQuality" stroke-linejoin="round" stroke="silver" stroke-width="2" stroke-miterlimit="4">
      <path fill="none" d="M12.4 2.7 C13.3 1.8 14.9 1.8 15.8 2.7 L21.3 8.2 C22.2 9.1 22.2 10.7 21.3 11.6 L17.6 15.3 C16.7 16.2 15.1 16.2 14.2 15.3 L8.7 9.8 C7.8 8.9 7.8 7.3 8.7 6.4 Z" clip-path="url(#clipPath11)"/>
    </g>
    <g stroke-linecap="round" transform="matrix(0.5512,0,0,0.5512,11.9877,364.7026)" fill="silver" image-rendering="optimizeQuality" stroke-linejoin="round" stroke="silver" stroke-width="2" stroke-miterlimit="4">
      <path fill="none" d="M14 7 L17 10" clip-path="url(#clipPath11)"/>
    </g>
    <g stroke-linecap="round" transform="matrix(0.5512,0,0,0.5512,11.9877,364.7026)" fill="silver" image-rendering="optimizeQuality" stroke-linejoin="round" stroke="silver" stroke-width="2" stroke-miterlimit="4">
      <path fill="none" d="M9.4 10.6 L2 18 L2 21 C2 21.6 2.4 22 3 22 L7 22 L7 19 L10 19 L10 16 L12 16 L13.4 14.6" clip-path="url(#clipPath11)"/>
    </g>
    <g stroke-miterlimit="1.45" font-size="11px" font-weight="bold" font-family="'Inter'" transform="matrix(0.8267,0,0,0.8267,8.2674,7.954)" stroke-linecap="butt">
      <text x="26.5" xml:space="preserve" y="445.1697" clip-path="url(#clipPath2)" stroke="none">Cust_ID</text>
    </g>
    <g stroke-miterlimit="1.45" font-size="11px" font-family="'Inter'" transform="matrix(0.8267,0,0,0.8267,8.2674,7.954)" stroke-linecap="butt">
      <text x="80.5" xml:space="preserve" y="445.1697" clip-path="url(#clipPath2)" stroke="none">CHARACTER</text>
    </g>
    <g stroke-linecap="round" transform="matrix(0.5512,0,0,0.5512,177.3353,364.7026)" fill="silver" image-rendering="optimizeQuality" stroke-linejoin="round" stroke="silver" stroke-width="2" stroke-miterlimit="4">
      <path fill="none" d="M7 7 L17 7 L17 17" clip-path="url(#clipPath6)"/>
    </g>
    <g stroke-linecap="round" transform="matrix(0.5512,0,0,0.5512,177.3353,364.7026)" fill="silver" image-rendering="optimizeQuality" stroke-linejoin="round" stroke="silver" stroke-width="2" stroke-miterlimit="4">
      <path fill="none" d="M7 17 L17 7" clip-path="url(#clipPath6)"/>
    </g>
    <g stroke-miterlimit="1.45" font-size="11px" font-weight="bold" font-family="'Inter'" transform="matrix(0.8267,0,0,0.8267,8.2674,7.954)" stroke-linecap="butt">
      <text x="26.5" xml:space="preserve" y="464.4822" clip-path="url(#clipPath2)" stroke="none">Rating</text>
    </g>
    <g stroke-miterlimit="1.45" font-size="11px" font-family="'Inter'" transform="matrix(0.8267,0,0,0.8267,8.2674,7.954)" stroke-linecap="butt">
      <text x="80.5" xml:space="preserve" y="464.4822" clip-path="url(#clipPath2)" stroke="none">INTEGER</text>
      <text x="26.5" xml:space="preserve" y="483.7947" clip-path="url(#clipPath2)" stroke="none">Rev_Text</text>
      <text x="80.5" xml:space="preserve" y="483.7947" clip-path="url(#clipPath2)" stroke="none">CHARACTER VARYING</text>
      <text x="26.5" xml:space="preserve" y="503.1072" clip-path="url(#clipPath2)" stroke="none">Rev_Date</text>
      <text x="80.5" xml:space="preserve" y="503.1072" clip-path="url(#clipPath2)" stroke="none">DATE</text>
    </g>
    <g fill="rgb(255,255,204)" transform="matrix(0.8267,0,0,0.8267,8.2674,7.954)" stroke="rgb(255,255,204)">
      <rect x="631" width="264" height="105.7724" y="173.8125" clip-path="url(#clipPath2)" stroke="none"/>
    </g>
    <g fill="gray" stroke-miterlimit="1.45" transform="matrix(0.8267,0,0,0.8267,8.2674,7.954)" stroke-linecap="butt" stroke="gray">
      <rect fill="none" x="631" width="264" height="105.7724" y="173.8125" clip-path="url(#clipPath2)"/>
      <text x="721.5" y="191.4372" clip-path="url(#clipPath2)" fill="black" font-family="'Inter'" stroke="none" xml:space="preserve">DEPARTMENT</text>
      <line stroke-linecap="square" clip-path="url(#clipPath2)" fill="none" x1="632" x2="894" y1="198" y2="198" stroke-miterlimit="10"/>
    </g>
    <g stroke-linecap="round" transform="matrix(0.5512,0,0,0.5512,533.246,174.4052)" fill="silver" image-rendering="optimizeQuality" stroke-linejoin="round" stroke="silver" stroke-width="2" stroke-miterlimit="4">
      <path fill="none" d="M12.4 2.7 C13.3 1.8 14.9 1.8 15.8 2.7 L21.3 8.2 C22.2 9.1 22.2 10.7 21.3 11.6 L17.6 15.3 C16.7 16.2 15.1 16.2 14.2 15.3 L8.7 9.8 C7.8 8.9 7.8 7.3 8.7 6.4 Z" clip-path="url(#clipPath11)"/>
    </g>
    <g stroke-linecap="round" transform="matrix(0.5512,0,0,0.5512,533.246,174.4052)" fill="silver" image-rendering="optimizeQuality" stroke-linejoin="round" stroke="silver" stroke-width="2" stroke-miterlimit="4">
      <path fill="none" d="M14 7 L17 10" clip-path="url(#clipPath11)"/>
    </g>
    <g stroke-linecap="round" transform="matrix(0.5512,0,0,0.5512,533.246,174.4052)" fill="silver" image-rendering="optimizeQuality" stroke-linejoin="round" stroke="silver" stroke-width="2" stroke-miterlimit="4">
      <path fill="none" d="M9.4 10.6 L2 18 L2 21 C2 21.6 2.4 22 3 22 L7 22 L7 19 L10 19 L10 16 L12 16 L13.4 14.6" clip-path="url(#clipPath11)"/>
    </g>
    <g stroke-miterlimit="1.45" font-size="11px" font-weight="bold" font-family="'Inter'" transform="matrix(0.8267,0,0,0.8267,8.2674,7.954)" stroke-linecap="butt">
      <text x="657" xml:space="preserve" y="214.9911" clip-path="url(#clipPath2)" stroke="none">Dep_Name</text>
    </g>
    <g stroke-miterlimit="1.45" font-size="11px" font-family="'Inter'" transform="matrix(0.8267,0,0,0.8267,8.2674,7.954)" stroke-linecap="butt">
      <text x="749" xml:space="preserve" y="214.9911" clip-path="url(#clipPath2)" stroke="none">CHARACTER VARYING</text>
      <text x="657" xml:space="preserve" y="234.3036" clip-path="url(#clipPath2)" stroke="none">Dep_Description</text>
      <text x="749" xml:space="preserve" y="234.3036" clip-path="url(#clipPath2)" stroke="none">CHARACTER VARYING</text>
      <text x="657" xml:space="preserve" y="253.6161" clip-path="url(#clipPath2)" stroke="none">Dep_Desc_Short</text>
      <text x="749" xml:space="preserve" y="253.6161" clip-path="url(#clipPath2)" stroke="none">CHARACTER VARYING</text>
      <text x="657" xml:space="preserve" y="272.9286" clip-path="url(#clipPath2)" stroke="none">Parent_Dep</text>
      <text x="749" xml:space="preserve" y="272.9286" clip-path="url(#clipPath2)" stroke="none">CHARACTER VARYING</text>
    </g>
    <g stroke-linecap="round" transform="matrix(0.5512,0,0,0.5512,730.0096,222.3043)" fill="silver" image-rendering="optimizeQuality" stroke-linejoin="round" stroke="silver" stroke-width="2" stroke-miterlimit="4">
      <path fill="none" d="M7 7 L17 7 L17 17" clip-path="url(#clipPath6)"/>
    </g>
    <g stroke-linecap="round" transform="matrix(0.5512,0,0,0.5512,730.0096,222.3043)" fill="silver" image-rendering="optimizeQuality" stroke-linejoin="round" stroke="silver" stroke-width="2" stroke-miterlimit="4">
      <path fill="none" d="M7 17 L17 7" clip-path="url(#clipPath6)"/>
    </g>
    <g fill="rgb(255,255,204)" transform="matrix(0.8267,0,0,0.8267,8.2674,7.954)" stroke="rgb(255,255,204)">
      <rect x="287" width="274" height="221.6474" y="0" clip-path="url(#clipPath2)" stroke="none"/>
    </g>
    <g fill="gray" stroke-miterlimit="1.45" transform="matrix(0.8267,0,0,0.8267,8.2674,7.954)" stroke-linecap="butt" stroke="gray">
      <rect fill="none" x="287" width="274" height="221.6474" y="0" clip-path="url(#clipPath2)"/>
      <text x="394" y="17.6247" clip-path="url(#clipPath2)" fill="black" font-family="'Inter'" stroke="none" xml:space="preserve">PRODUCT</text>
      <line stroke-linecap="square" clip-path="url(#clipPath2)" fill="none" x1="288" x2="560" y1="24" y2="24" stroke-miterlimit="10"/>
    </g>
    <g stroke-linecap="round" transform="matrix(0.5512,0,0,0.5512,248.8481,30.7078)" fill="silver" image-rendering="optimizeQuality" stroke-linejoin="round" stroke="silver" stroke-width="2" stroke-miterlimit="4">
      <path fill="none" d="M12.4 2.7 C13.3 1.8 14.9 1.8 15.8 2.7 L21.3 8.2 C22.2 9.1 22.2 10.7 21.3 11.6 L17.6 15.3 C16.7 16.2 15.1 16.2 14.2 15.3 L8.7 9.8 C7.8 8.9 7.8 7.3 8.7 6.4 Z" clip-path="url(#clipPath6)"/>
    </g>
    <g stroke-linecap="round" transform="matrix(0.5512,0,0,0.5512,248.8481,30.7078)" fill="silver" image-rendering="optimizeQuality" stroke-linejoin="round" stroke="silver" stroke-width="2" stroke-miterlimit="4">
      <path fill="none" d="M14 7 L17 10" clip-path="url(#clipPath6)"/>
    </g>
    <g stroke-linecap="round" transform="matrix(0.5512,0,0,0.5512,248.8481,30.7078)" fill="silver" image-rendering="optimizeQuality" stroke-linejoin="round" stroke="silver" stroke-width="2" stroke-miterlimit="4">
      <path fill="none" d="M9.4 10.6 L2 18 L2 21 C2 21.6 2.4 22 3 22 L7 22 L7 19 L10 19 L10 16 L12 16 L13.4 14.6" clip-path="url(#clipPath6)"/>
    </g>
    <g stroke-miterlimit="1.45" font-size="11px" font-weight="bold" font-family="'Inter'" transform="matrix(0.8267,0,0,0.8267,8.2674,7.954)" stroke-linecap="butt">
      <text x="313" xml:space="preserve" y="41.1786" clip-path="url(#clipPath2)" stroke="none">Prod_ID</text>
    </g>
    <g stroke-miterlimit="1.45" font-size="11px" font-family="'Inter'" transform="matrix(0.8267,0,0,0.8267,8.2674,7.954)" stroke-linecap="butt">
      <text x="415" xml:space="preserve" y="41.1786" clip-path="url(#clipPath2)" stroke="none">INTEGER</text>
      <text x="313" xml:space="preserve" y="60.4911" clip-path="url(#clipPath2)" font-weight="bold" stroke="none">Prod_Name</text>
      <text x="415" xml:space="preserve" y="60.4911" clip-path="url(#clipPath2)" stroke="none">CHARACTER VARYING</text>
      <text x="313" xml:space="preserve" y="79.8036" clip-path="url(#clipPath2)" stroke="none">Prod_Description</text>
      <text x="415" xml:space="preserve" y="79.8036" clip-path="url(#clipPath2)" stroke="none">CHARACTER VARYING</text>
      <text x="313" xml:space="preserve" y="99.1161" clip-path="url(#clipPath2)" stroke="none">Prod_Desc_Short</text>
      <text x="415" xml:space="preserve" y="99.1161" clip-path="url(#clipPath2)" stroke="none">CHARACTER VARYING</text>
      <text x="313" xml:space="preserve" y="118.4286" clip-path="url(#clipPath2)" font-weight="bold" stroke="none">Prod_Price</text>
      <text x="415" xml:space="preserve" y="118.4286" clip-path="url(#clipPath2)" stroke="none">DECIMAL</text>
      <text x="313" xml:space="preserve" y="137.7411" clip-path="url(#clipPath2)" font-weight="bold" stroke="none">Tax_Percent</text>
      <text x="415" xml:space="preserve" y="137.7411" clip-path="url(#clipPath2)" stroke="none">INTEGER</text>
      <text x="313" xml:space="preserve" y="157.0536" clip-path="url(#clipPath2)" font-weight="bold" stroke="none">Discount_Percent</text>
      <text x="415" xml:space="preserve" y="157.0536" clip-path="url(#clipPath2)" stroke="none">INTEGER</text>
      <text x="313" xml:space="preserve" y="176.3661" clip-path="url(#clipPath2)" font-weight="bold" stroke="none">Stock</text>
      <text x="415" xml:space="preserve" y="176.3661" clip-path="url(#clipPath2)" stroke="none">INTEGER</text>
      <text x="313" xml:space="preserve" y="195.6786" clip-path="url(#clipPath2)" stroke="none">Featured</text>
      <text x="415" xml:space="preserve" y="195.6786" clip-path="url(#clipPath2)" stroke="none">BOOLEAN</text>
      <text x="313" xml:space="preserve" y="214.9911" clip-path="url(#clipPath2)" stroke="none">Dep_Name</text>
      <text x="415" xml:space="preserve" y="214.9911" clip-path="url(#clipPath2)" stroke="none">CHARACTER VARYING</text>
    </g>
    <g stroke-linecap="round" transform="matrix(0.5512,0,0,0.5512,453.8791,174.4052)" fill="silver" image-rendering="optimizeQuality" stroke-linejoin="round" stroke="silver" stroke-width="2" stroke-miterlimit="4">
      <path fill="none" d="M7 7 L17 7 L17 17" clip-path="url(#clipPath6)"/>
    </g>
    <g stroke-linecap="round" transform="matrix(0.5512,0,0,0.5512,453.8791,174.4052)" fill="silver" image-rendering="optimizeQuality" stroke-linejoin="round" stroke="silver" stroke-width="2" stroke-miterlimit="4">
      <path fill="none" d="M7 17 L17 7" clip-path="url(#clipPath6)"/>
    </g>
    <g fill="rgb(255,255,204)" transform="matrix(0.8267,0,0,0.8267,8.2674,7.954)" stroke="rgb(255,255,204)">
      <rect x="16" width="195" height="105.7724" y="221.661" clip-path="url(#clipPath2)" stroke="none"/>
    </g>
    <g fill="gray" stroke-miterlimit="1.45" transform="matrix(0.8267,0,0,0.8267,8.2674,7.954)" stroke-linecap="butt" stroke="gray">
      <rect fill="none" x="16" width="195" height="105.7724" y="221.661" clip-path="url(#clipPath2)"/>
      <text x="65.5" y="239.2857" clip-path="url(#clipPath2)" fill="black" font-family="'Inter'" stroke="none" xml:space="preserve">PROD_ORDERED</text>
      <line stroke-linecap="square" clip-path="url(#clipPath2)" fill="none" x1="17" x2="210" y1="246" y2="246" stroke-miterlimit="10"/>
    </g>
    <g stroke-linecap="round" transform="matrix(0.5512,0,0,0.5512,24.8021,213.9634)" fill="silver" image-rendering="optimizeQuality" stroke-linejoin="round" stroke="silver" stroke-width="2" stroke-miterlimit="4">
      <path fill="none" d="M12.4 2.7 C13.3 1.8 14.9 1.8 15.8 2.7 L21.3 8.2 C22.2 9.1 22.2 10.7 21.3 11.6 L17.6 15.3 C16.7 16.2 15.1 16.2 14.2 15.3 L8.7 9.8 C7.8 8.9 7.8 7.3 8.7 6.4 Z" clip-path="url(#clipPath9)"/>
    </g>
    <g stroke-linecap="round" transform="matrix(0.5512,0,0,0.5512,24.8021,213.9634)" fill="silver" image-rendering="optimizeQuality" stroke-linejoin="round" stroke="silver" stroke-width="2" stroke-miterlimit="4">
      <path fill="none" d="M14 7 L17 10" clip-path="url(#clipPath9)"/>
    </g>
    <g stroke-linecap="round" transform="matrix(0.5512,0,0,0.5512,24.8021,213.9634)" fill="silver" image-rendering="optimizeQuality" stroke-linejoin="round" stroke="silver" stroke-width="2" stroke-miterlimit="4">
      <path fill="none" d="M9.4 10.6 L2 18 L2 21 C2 21.6 2.4 22 3 22 L7 22 L7 19 L10 19 L10 16 L12 16 L13.4 14.6" clip-path="url(#clipPath9)"/>
    </g>
    <g stroke-miterlimit="1.45" font-size="11px" font-weight="bold" font-family="'Inter'" transform="matrix(0.8267,0,0,0.8267,8.2674,7.954)" stroke-linecap="butt">
      <text x="42" xml:space="preserve" y="262.8396" clip-path="url(#clipPath2)" stroke="none">Prod_ID</text>
    </g>
    <g stroke-miterlimit="1.45" font-size="11px" font-family="'Inter'" transform="matrix(0.8267,0,0,0.8267,8.2674,7.954)" stroke-linecap="butt">
      <text x="132" xml:space="preserve" y="262.8396" clip-path="url(#clipPath2)" stroke="none">INTEGER</text>
    </g>
    <g stroke-linecap="round" transform="matrix(0.5512,0,0,0.5512,164.5209,213.9634)" fill="silver" image-rendering="optimizeQuality" stroke-linejoin="round" stroke="silver" stroke-width="2" stroke-miterlimit="4">
      <path fill="none" d="M7 7 L17 7 L17 17" clip-path="url(#clipPath9)"/>
    </g>
    <g stroke-linecap="round" transform="matrix(0.5512,0,0,0.5512,164.5209,213.9634)" fill="silver" image-rendering="optimizeQuality" stroke-linejoin="round" stroke="silver" stroke-width="2" stroke-miterlimit="4">
      <path fill="none" d="M7 17 L17 7" clip-path="url(#clipPath9)"/>
    </g>
    <g stroke-linecap="round" transform="matrix(0.5512,0,0,0.5512,24.8021,229.9298)" fill="silver" image-rendering="optimizeQuality" stroke-linejoin="round" stroke="silver" stroke-width="2" stroke-miterlimit="4">
      <path fill="none" d="M12.4 2.7 C13.3 1.8 14.9 1.8 15.8 2.7 L21.3 8.2 C22.2 9.1 22.2 10.7 21.3 11.6 L17.6 15.3 C16.7 16.2 15.1 16.2 14.2 15.3 L8.7 9.8 C7.8 8.9 7.8 7.3 8.7 6.4 Z" clip-path="url(#clipPath6)"/>
    </g>
    <g stroke-linecap="round" transform="matrix(0.5512,0,0,0.5512,24.8021,229.9298)" fill="silver" image-rendering="optimizeQuality" stroke-linejoin="round" stroke="silver" stroke-width="2" stroke-miterlimit="4">
      <path fill="none" d="M14 7 L17 10" clip-path="url(#clipPath6)"/>
    </g>
    <g stroke-linecap="round" transform="matrix(0.5512,0,0,0.5512,24.8021,229.9298)" fill="silver" image-rendering="optimizeQuality" stroke-linejoin="round" stroke="silver" stroke-width="2" stroke-miterlimit="4">
      <path fill="none" d="M9.4 10.6 L2 18 L2 21 C2 21.6 2.4 22 3 22 L7 22 L7 19 L10 19 L10 16 L12 16 L13.4 14.6" clip-path="url(#clipPath6)"/>
    </g>
    <g stroke-miterlimit="1.45" font-size="11px" font-weight="bold" font-family="'Inter'" transform="matrix(0.8267,0,0,0.8267,8.2674,7.954)" stroke-linecap="butt">
      <text x="42" xml:space="preserve" y="282.1521" clip-path="url(#clipPath2)" stroke="none">Order_ID</text>
    </g>
    <g stroke-miterlimit="1.45" font-size="11px" font-family="'Inter'" transform="matrix(0.8267,0,0,0.8267,8.2674,7.954)" stroke-linecap="butt">
      <text x="132" xml:space="preserve" y="282.1521" clip-path="url(#clipPath2)" stroke="none">INTEGER</text>
    </g>
    <g stroke-linecap="round" transform="matrix(0.5512,0,0,0.5512,164.5209,229.9298)" fill="silver" image-rendering="optimizeQuality" stroke-linejoin="round" stroke="silver" stroke-width="2" stroke-miterlimit="4">
      <path fill="none" d="M7 7 L17 7 L17 17" clip-path="url(#clipPath6)"/>
    </g>
    <g stroke-linecap="round" transform="matrix(0.5512,0,0,0.5512,164.5209,229.9298)" fill="silver" image-rendering="optimizeQuality" stroke-linejoin="round" stroke="silver" stroke-width="2" stroke-miterlimit="4">
      <path fill="none" d="M7 17 L17 7" clip-path="url(#clipPath6)"/>
    </g>
    <g stroke-miterlimit="1.45" font-size="11px" font-weight="bold" font-family="'Inter'" transform="matrix(0.8267,0,0,0.8267,8.2674,7.954)" stroke-linecap="butt">
      <text x="42" xml:space="preserve" y="301.4646" clip-path="url(#clipPath2)" stroke="none">Prod_Quantity</text>
    </g>
    <g stroke-miterlimit="1.45" font-size="11px" font-family="'Inter'" transform="matrix(0.8267,0,0,0.8267,8.2674,7.954)" stroke-linecap="butt">
      <text x="132" xml:space="preserve" y="301.4646" clip-path="url(#clipPath2)" stroke="none">INTEGER</text>
      <text x="42" xml:space="preserve" y="320.7771" clip-path="url(#clipPath2)" font-weight="bold" stroke="none">Price_Purchase</text>
      <text x="132" xml:space="preserve" y="320.7771" clip-path="url(#clipPath2)" stroke="none">DECIMAL</text>
    </g>
    <g fill="rgb(255,255,204)" transform="matrix(0.8267,0,0,0.8267,8.2674,7.954)" stroke="rgb(255,255,204)">
      <rect x="0" width="227" height="67.1474" y="0" clip-path="url(#clipPath2)" stroke="none"/>
    </g>
    <g fill="gray" stroke-miterlimit="1.45" transform="matrix(0.8267,0,0,0.8267,8.2674,7.954)" stroke-linecap="butt" stroke="gray">
      <rect fill="none" x="0" width="227" height="67.1474" y="0" clip-path="url(#clipPath2)"/>
      <text x="79.5" y="17.6247" clip-path="url(#clipPath2)" fill="black" font-family="'Inter'" stroke="none" xml:space="preserve">KEYWORDS</text>
      <line stroke-linecap="square" clip-path="url(#clipPath2)" fill="none" x1="1" x2="226" y1="24" y2="24" stroke-miterlimit="10"/>
    </g>
    <g stroke-linecap="round" transform="matrix(0.5512,0,0,0.5512,11.5743,30.7078)" fill="silver" image-rendering="optimizeQuality" stroke-linejoin="round" stroke="silver" stroke-width="2" stroke-miterlimit="4">
      <path fill="none" d="M12.4 2.7 C13.3 1.8 14.9 1.8 15.8 2.7 L21.3 8.2 C22.2 9.1 22.2 10.7 21.3 11.6 L17.6 15.3 C16.7 16.2 15.1 16.2 14.2 15.3 L8.7 9.8 C7.8 8.9 7.8 7.3 8.7 6.4 Z" clip-path="url(#clipPath11)"/>
    </g>
    <g stroke-linecap="round" transform="matrix(0.5512,0,0,0.5512,11.5743,30.7078)" fill="silver" image-rendering="optimizeQuality" stroke-linejoin="round" stroke="silver" stroke-width="2" stroke-miterlimit="4">
      <path fill="none" d="M14 7 L17 10" clip-path="url(#clipPath11)"/>
    </g>
    <g stroke-linecap="round" transform="matrix(0.5512,0,0,0.5512,11.5743,30.7078)" fill="silver" image-rendering="optimizeQuality" stroke-linejoin="round" stroke="silver" stroke-width="2" stroke-miterlimit="4">
      <path fill="none" d="M9.4 10.6 L2 18 L2 21 C2 21.6 2.4 22 3 22 L7 22 L7 19 L10 19 L10 16 L12 16 L13.4 14.6" clip-path="url(#clipPath11)"/>
    </g>
    <g stroke-miterlimit="1.45" font-size="11px" font-weight="bold" font-family="'Inter'" transform="matrix(0.8267,0,0,0.8267,8.2674,7.954)" stroke-linecap="butt">
      <text x="26" xml:space="preserve" y="41.1786" clip-path="url(#clipPath2)" stroke="none">Prod_ID</text>
    </g>
    <g stroke-miterlimit="1.45" font-size="11px" font-family="'Inter'" transform="matrix(0.8267,0,0,0.8267,8.2674,7.954)" stroke-linecap="butt">
      <text x="81" xml:space="preserve" y="41.1786" clip-path="url(#clipPath2)" stroke="none">INTEGER</text>
    </g>
    <g stroke-linecap="round" transform="matrix(0.5512,0,0,0.5512,177.7487,30.7078)" fill="silver" image-rendering="optimizeQuality" stroke-linejoin="round" stroke="silver" stroke-width="2" stroke-miterlimit="4">
      <path fill="none" d="M7 7 L17 7 L17 17" clip-path="url(#clipPath11)"/>
    </g>
    <g stroke-linecap="round" transform="matrix(0.5512,0,0,0.5512,177.7487,30.7078)" fill="silver" image-rendering="optimizeQuality" stroke-linejoin="round" stroke="silver" stroke-width="2" stroke-miterlimit="4">
      <path fill="none" d="M7 17 L17 7" clip-path="url(#clipPath11)"/>
    </g>
    <g stroke-linecap="round" transform="matrix(0.5512,0,0,0.5512,11.5743,46.6742)" fill="silver" image-rendering="optimizeQuality" stroke-linejoin="round" stroke="silver" stroke-width="2" stroke-miterlimit="4">
      <path fill="none" d="M12.4 2.7 C13.3 1.8 14.9 1.8 15.8 2.7 L21.3 8.2 C22.2 9.1 22.2 10.7 21.3 11.6 L17.6 15.3 C16.7 16.2 15.1 16.2 14.2 15.3 L8.7 9.8 C7.8 8.9 7.8 7.3 8.7 6.4 Z" clip-path="url(#clipPath4)"/>
    </g>
    <g stroke-linecap="round" transform="matrix(0.5512,0,0,0.5512,11.5743,46.6742)" fill="silver" image-rendering="optimizeQuality" stroke-linejoin="round" stroke="silver" stroke-width="2" stroke-miterlimit="4">
      <path fill="none" d="M14 7 L17 10" clip-path="url(#clipPath4)"/>
    </g>
    <g stroke-linecap="round" transform="matrix(0.5512,0,0,0.5512,11.5743,46.6742)" fill="silver" image-rendering="optimizeQuality" stroke-linejoin="round" stroke="silver" stroke-width="2" stroke-miterlimit="4">
      <path fill="none" d="M9.4 10.6 L2 18 L2 21 C2 21.6 2.4 22 3 22 L7 22 L7 19 L10 19 L10 16 L12 16 L13.4 14.6" clip-path="url(#clipPath4)"/>
    </g>
    <g stroke-miterlimit="1.45" font-size="11px" font-weight="bold" font-family="'Inter'" transform="matrix(0.8267,0,0,0.8267,8.2674,7.954)" stroke-linecap="butt">
      <text x="26" xml:space="preserve" y="60.4911" clip-path="url(#clipPath2)" stroke="none">Keyword</text>
    </g>
    <g stroke-miterlimit="1.45" font-size="11px" font-family="'Inter'" transform="matrix(0.8267,0,0,0.8267,8.2674,7.954)" stroke-linecap="butt">
      <text x="81" xml:space="preserve" y="60.4911" clip-path="url(#clipPath2)" stroke="none">CHARACTER VARYING</text>
    </g>
    <g fill="gray" stroke-miterlimit="1.45" transform="matrix(0.8267,0,0,0.8267,8.2674,7.954)" stroke-linecap="butt" stroke="gray">
      <path fill="none" d="M551.0391 321.451 L591 321.451 L591 394.7428 L644.9697 394.7428" clip-path="url(#clipPath2)"/>
    </g>
    <g fill="gray" stroke-miterlimit="1.45" transform="matrix(0.8267,0,0,0.8267,8.2674,7.954)" stroke-linecap="butt" stroke="gray">
      <path d="M652.9697 394.7428 L640.9697 389.7428 L643.9697 394.7428 L640.9697 399.7428 Z" stroke="none" clip-path="url(#clipPath2)"/>
      <path fill="none" d="M226.5433 440.1697 L581 440.1697 L581 394.7428 L644.9648 394.7428" clip-path="url(#clipPath2)"/>
      <path d="M652.9648 394.7428 L640.9648 389.7428 L643.9648 394.7428 L640.9648 399.7428 Z" clip-path="url(#clipPath2)" stroke="none"/>
      <path fill="none" d="M895.0391 267.9286 L915 267.9286 L915 289.5849 L611 289.5849 L611 209.9911 L622.9609 209.9911" clip-path="url(#clipPath2)"/>
      <path d="M630.9609 209.9911 L618.9609 204.9911 L621.9609 209.9911 L618.9609 214.9911 Z" clip-path="url(#clipPath2)" stroke="none"/>
      <path fill="none" d="M561.0342 209.9911 L622.9658 209.9911" clip-path="url(#clipPath2)"/>
      <path d="M630.9658 209.9911 L618.9658 204.9911 L621.9658 209.9911 L618.9658 214.9911 Z" clip-path="url(#clipPath2)" stroke="none"/>
      <path fill="none" d="M211.0273 277.1521 L267 277.1521 L267 302.1385 L288.9707 302.1385" clip-path="url(#clipPath2)"/>
      <path d="M296.9707 302.1385 L284.9707 297.1385 L287.9707 302.1385 L284.9707 307.1385 Z" clip-path="url(#clipPath2)" stroke="none"/>
      <path fill="none" d="M227.0293 36.1786 L278.9707 36.1786" clip-path="url(#clipPath2)"/>
      <path d="M286.9707 36.1786 L274.9707 31.1786 L277.9707 36.1786 L274.9707 41.1786 Z" clip-path="url(#clipPath2)" stroke="none"/>
      <path fill="none" d="M211.0352 257.8396 L247 257.8396 L247 36.1786 L278.9609 36.1786" clip-path="url(#clipPath2)"/>
      <path d="M286.9609 36.1786 L274.9609 31.1786 L277.9609 36.1786 L274.9609 41.1786 Z" clip-path="url(#clipPath2)" stroke="none"/>
      <path fill="none" d="M226.5298 420.8572 L257 420.8572 L257 282.1521 Q262 282.1521 262 277.1521 Q262 272.1521 257 272.1521 L257 36.1786 L278.9707 36.1786" clip-path="url(#clipPath2)"/>
      <path d="M286.9707 36.1786 L274.9707 31.1786 L277.9707 36.1786 L274.9707 41.1786 Z" clip-path="url(#clipPath2)" stroke="none"/>
    </g>
  </g>
</svg>
